<svg width="24" height="24" viewBox="0 0 24 24" fill="none" xmlns="http://www.w3.org/2000/svg">
<g clip-path="url(#clip0_112_1239)">
<path d="M12 24C18.6274 24 24 18.6274 24 12C24 5.37258 18.6274 0 12 0C5.37258 0 0 5.37258 0 12C0 18.6274 5.37258 24 12 24Z" fill="#0D1E30"/>
<g filter="url(#filter0_d_112_1239)">
<path d="M11.7938 4.54496C12.153 4.35971 12.5918 4.78796 12.4013 5.14121C12.2895 5.42921 11.8688 5.50571 11.6543 5.28596C11.427 5.07596 11.5013 4.65896 11.7938 4.54421V4.54496ZM7.92753 4.95446C8.14578 4.86596 8.42253 5.06246 8.40003 5.29721C8.42253 5.55071 8.10753 5.73821 7.88478 5.61746C7.59003 5.50496 7.62378 5.03396 7.92753 4.95446ZM15.846 5.62421C15.5048 5.58371 15.4508 5.05571 15.7785 4.94921C16.0335 4.82771 16.2675 5.05646 16.305 5.29421C16.251 5.49671 16.0785 5.68271 15.846 5.62421ZM8.80728 6.57296C9.17253 6.34571 9.69303 6.68396 9.63678 7.10171C9.61803 7.52246 9.04953 7.76696 8.72853 7.48196C8.41803 7.25846 8.46528 6.74546 8.80728 6.57296ZM14.3798 6.81446C14.5425 6.40196 15.2025 6.38846 15.3878 6.79046C15.5715 7.10321 15.3458 7.49096 15.0195 7.59746C14.5868 7.67696 14.1765 7.21646 14.3798 6.81446ZM11.328 7.57421C11.3243 7.21871 11.6528 6.95471 11.9955 6.92996C12.2235 6.97496 12.471 7.07021 12.5685 7.29596C12.7508 7.60796 12.5888 8.03621 12.261 8.17946C12.111 8.26196 11.9325 8.23121 11.769 8.22146C11.5193 8.10146 11.3085 7.86371 11.328 7.57421ZM5.57853 8.09171C5.91228 7.88921 6.36228 8.25671 6.23553 8.61371C6.16653 8.92196 5.74503 9.04721 5.50428 8.85071C5.24703 8.66621 5.28753 8.22296 5.57928 8.09096L5.57853 8.09171ZM17.925 8.09021C18.2078 7.87421 18.675 8.12246 18.6405 8.47346C18.66 8.79371 18.2558 9.03596 17.9753 8.87096C17.6663 8.73371 17.634 8.26571 17.925 8.09096V8.09021ZM12.945 8.72846C13.4115 8.56346 13.9665 8.76071 14.232 9.17096C14.583 9.67121 14.397 10.4332 13.8518 10.7205C13.2878 11.0602 12.4635 10.773 12.2543 10.152C12.018 9.59696 12.363 8.90246 12.9443 8.72846H12.945ZM10.2053 8.78321C10.7228 8.54321 11.4195 8.74421 11.6693 9.26471C11.9633 9.77171 11.736 10.4775 11.2103 10.7392C10.6838 11.034 9.94054 10.8105 9.68628 10.2667C9.40053 9.74021 9.65404 9.02546 10.2053 8.78321ZM7.46253 9.70496C7.50228 9.37721 7.81653 9.16346 8.13378 9.14096C8.29924 9.15844 8.45387 9.23152 8.57239 9.34828C8.69092 9.46503 8.76632 9.61854 8.78628 9.78371C8.76378 10.1212 8.49903 10.4497 8.13603 10.4482C7.73628 10.482 7.38603 10.0905 7.46253 9.70496ZM15.564 9.21296C15.9743 8.97821 16.5435 9.31946 16.5255 9.78296C16.5533 10.2742 15.9233 10.62 15.5153 10.332C15.0908 10.092 15.1238 9.41696 15.564 9.21296ZM9.09153 10.9432C9.57003 10.8135 10.119 11.0355 10.3538 11.469C10.611 11.9055 10.506 12.5115 10.1063 12.8325C9.59254 13.302 8.64678 13.113 8.37378 12.4725C8.05953 11.8852 8.44128 11.0977 9.09079 10.9425L9.09153 10.9432ZM14.2868 10.941C14.7525 10.8097 15.3 10.986 15.5505 11.4037C15.882 11.8815 15.7238 12.5947 15.231 12.9022C14.7135 13.26 13.914 13.0725 13.629 12.513C13.284 11.9347 13.6313 11.1172 14.2868 10.941ZM6.00678 11.4855C6.42078 11.3317 6.87978 11.781 6.71178 12.1852C6.60978 12.5527 6.08253 12.6892 5.81028 12.4177C5.49153 12.1627 5.60928 11.5965 6.00678 11.4855ZM17.2335 12.072C17.2258 11.9069 17.2835 11.7454 17.3942 11.6226C17.5048 11.4999 17.6595 11.4258 17.8245 11.4165C18.108 11.4615 18.384 11.6865 18.3615 11.9902C18.3878 12.3915 17.8965 12.6637 17.5485 12.4755C17.3858 12.3937 17.3025 12.2295 17.2335 12.072ZM3.97053 11.685C4.21953 11.5777 4.52778 11.79 4.47078 12.0622C4.45728 12.3705 3.99453 12.4897 3.82503 12.2317C3.67503 12.0525 3.76503 11.7772 3.97053 11.6842V11.685ZM19.6823 11.6782C19.8578 11.556 20.1398 11.6437 20.2088 11.8455C20.3265 12.066 20.1105 12.3675 19.8585 12.3307C19.5045 12.3622 19.3905 11.832 19.6823 11.6782ZM10.4445 13.158C11.1 12.9907 11.805 13.5285 11.8095 14.193C11.8515 14.8642 11.157 15.459 10.4865 15.3045C9.96754 15.222 9.56029 14.73 9.57754 14.2147C9.57604 13.7212 9.95403 13.2622 10.4445 13.158ZM13.041 13.1572C13.7063 12.9742 14.4323 13.5217 14.4218 14.2012C14.457 14.8597 13.7843 15.435 13.1273 15.3037C12.5085 15.2257 12.0525 14.5575 12.225 13.9665C12.312 13.5735 12.6465 13.254 13.041 13.1565V13.1572ZM8.03403 13.566C8.49453 13.4887 8.92653 13.9935 8.73978 14.424C8.60328 14.883 7.92528 15.0067 7.62528 14.6325C7.27428 14.2725 7.53678 13.6155 8.03403 13.566ZM15.6495 13.5862C16.0605 13.4167 16.5645 13.7662 16.533 14.205C16.5495 14.6872 15.927 15.0202 15.5258 14.7382C15.0705 14.4855 15.1538 13.7407 15.6495 13.5862ZM17.778 15.6862C17.6175 15.3915 17.9093 15.0007 18.243 15.0555C18.408 15.0525 18.5243 15.1807 18.63 15.2887C18.6518 15.4635 18.6885 15.672 18.5408 15.8062C18.3405 16.056 17.8868 15.9847 17.778 15.6862ZM5.57703 15.1372C5.88828 14.934 6.33603 15.2377 6.26553 15.5947C6.22803 15.912 5.82303 16.0927 5.55678 15.9127C5.27028 15.75 5.28078 15.2857 5.57703 15.1372ZM11.7218 15.7995C12.129 15.6232 12.648 15.972 12.609 16.413C12.639 16.9005 11.9978 17.238 11.5995 16.9455C11.157 16.6942 11.2313 15.9547 11.7218 15.7995ZM8.87628 16.4527C9.22278 16.2735 9.68778 16.5832 9.65628 16.9657C9.66678 17.2792 9.35629 17.5462 9.04129 17.4997C8.78103 17.4945 8.61153 17.2642 8.52753 17.046C8.53203 16.8082 8.63178 16.5435 8.87628 16.4535V16.4527ZM14.6408 16.4587C14.9978 16.2412 15.5048 16.5532 15.471 16.9612C15.48 17.3887 14.907 17.6617 14.5748 17.3812C14.2538 17.1615 14.2928 16.6335 14.6408 16.4587ZM15.6435 18.8962C15.4845 18.6607 15.6713 18.3765 15.9285 18.3225C16.1363 18.3637 16.356 18.5175 16.3118 18.753C16.2818 19.0732 15.8063 19.1707 15.6435 18.897V18.8962ZM7.68528 18.6915C7.74828 18.504 7.90128 18.3187 8.12553 18.3675C8.45178 18.39 8.54853 18.8745 8.26278 19.0237C8.00628 19.194 7.70778 18.9607 7.68528 18.6915ZM11.5253 18.9067C11.5875 18.6292 11.9513 18.495 12.1913 18.642C12.3503 18.7095 12.3968 18.8835 12.4373 19.032C12.4159 19.1091 12.3959 19.1866 12.3773 19.2645C12.279 19.3785 12.1523 19.4932 11.9888 19.4895C11.685 19.5247 11.4105 19.1865 11.5245 18.9067H11.5253Z" fill="black"/>
</g>
<path d="M11.7938 4.54496C12.153 4.35971 12.5918 4.78796 12.4013 5.14121C12.2895 5.42921 11.8688 5.50571 11.6543 5.28596C11.427 5.07596 11.5013 4.65896 11.7938 4.54421V4.54496ZM7.92753 4.95446C8.14578 4.86596 8.42253 5.06246 8.40003 5.29721C8.42253 5.55071 8.10753 5.73821 7.88478 5.61746C7.59003 5.50496 7.62378 5.03396 7.92753 4.95446ZM15.846 5.62421C15.5048 5.58371 15.4508 5.05571 15.7785 4.94921C16.0335 4.82771 16.2675 5.05646 16.305 5.29421C16.251 5.49671 16.0785 5.68271 15.846 5.62421ZM8.80728 6.57296C9.17253 6.34571 9.69303 6.68396 9.63678 7.10171C9.61803 7.52246 9.04953 7.76696 8.72853 7.48196C8.41803 7.25846 8.46528 6.74546 8.80728 6.57296ZM14.3798 6.81446C14.5425 6.40196 15.2025 6.38846 15.3878 6.79046C15.5715 7.10321 15.3458 7.49096 15.0195 7.59746C14.5868 7.67696 14.1765 7.21646 14.3798 6.81446ZM11.328 7.57421C11.3243 7.21871 11.6528 6.95471 11.9955 6.92996C12.2235 6.97496 12.471 7.07021 12.5685 7.29596C12.7508 7.60796 12.5888 8.03621 12.261 8.17946C12.111 8.26196 11.9325 8.23121 11.769 8.22146C11.5193 8.10146 11.3085 7.86371 11.328 7.57421ZM5.57853 8.09171C5.91228 7.88921 6.36228 8.25671 6.23553 8.61371C6.16653 8.92196 5.74503 9.04721 5.50428 8.85071C5.24703 8.66621 5.28753 8.22296 5.57928 8.09096L5.57853 8.09171ZM17.925 8.09021C18.2078 7.87421 18.675 8.12246 18.6405 8.47346C18.66 8.79371 18.2558 9.03596 17.9753 8.87096C17.6663 8.73371 17.634 8.26571 17.925 8.09096V8.09021ZM12.945 8.72846C13.4115 8.56346 13.9665 8.76071 14.232 9.17096C14.583 9.67121 14.397 10.4332 13.8518 10.7205C13.2878 11.0602 12.4635 10.773 12.2543 10.152C12.018 9.59696 12.363 8.90246 12.9443 8.72846H12.945ZM10.2053 8.78321C10.7228 8.54321 11.4195 8.74421 11.6693 9.26471C11.9633 9.77171 11.736 10.4775 11.2103 10.7392C10.6838 11.034 9.94054 10.8105 9.68628 10.2667C9.40053 9.74021 9.65404 9.02546 10.2053 8.78321ZM7.46253 9.70496C7.50228 9.37721 7.81653 9.16346 8.13378 9.14096C8.29924 9.15844 8.45387 9.23152 8.57239 9.34828C8.69092 9.46503 8.76632 9.61854 8.78628 9.78371C8.76378 10.1212 8.49903 10.4497 8.13603 10.4482C7.73628 10.482 7.38603 10.0905 7.46253 9.70496ZM15.564 9.21296C15.9743 8.97821 16.5435 9.31946 16.5255 9.78296C16.5533 10.2742 15.9233 10.62 15.5153 10.332C15.0908 10.092 15.1238 9.41696 15.564 9.21296ZM9.09153 10.9432C9.57003 10.8135 10.119 11.0355 10.3538 11.469C10.611 11.9055 10.506 12.5115 10.1063 12.8325C9.59254 13.302 8.64678 13.113 8.37378 12.4725C8.05953 11.8852 8.44128 11.0977 9.09079 10.9425L9.09153 10.9432ZM14.2868 10.941C14.7525 10.8097 15.3 10.986 15.5505 11.4037C15.882 11.8815 15.7238 12.5947 15.231 12.9022C14.7135 13.26 13.914 13.0725 13.629 12.513C13.284 11.9347 13.6313 11.1172 14.2868 10.941ZM6.00678 11.4855C6.42078 11.3317 6.87978 11.781 6.71178 12.1852C6.60978 12.5527 6.08253 12.6892 5.81028 12.4177C5.49153 12.1627 5.60928 11.5965 6.00678 11.4855ZM17.2335 12.072C17.2258 11.9069 17.2835 11.7454 17.3942 11.6226C17.5048 11.4999 17.6595 11.4258 17.8245 11.4165C18.108 11.4615 18.384 11.6865 18.3615 11.9902C18.3878 12.3915 17.8965 12.6637 17.5485 12.4755C17.3858 12.3937 17.3025 12.2295 17.2335 12.072ZM3.97053 11.685C4.21953 11.5777 4.52778 11.79 4.47078 12.0622C4.45728 12.3705 3.99453 12.4897 3.82503 12.2317C3.67503 12.0525 3.76503 11.7772 3.97053 11.6842V11.685ZM19.6823 11.6782C19.8578 11.556 20.1398 11.6437 20.2088 11.8455C20.3265 12.066 20.1105 12.3675 19.8585 12.3307C19.5045 12.3622 19.3905 11.832 19.6823 11.6782ZM10.4445 13.158C11.1 12.9907 11.805 13.5285 11.8095 14.193C11.8515 14.8642 11.157 15.459 10.4865 15.3045C9.96754 15.222 9.56029 14.73 9.57754 14.2147C9.57604 13.7212 9.95403 13.2622 10.4445 13.158ZM13.041 13.1572C13.7063 12.9742 14.4323 13.5217 14.4218 14.2012C14.457 14.8597 13.7843 15.435 13.1273 15.3037C12.5085 15.2257 12.0525 14.5575 12.225 13.9665C12.312 13.5735 12.6465 13.254 13.041 13.1565V13.1572ZM8.03403 13.566C8.49453 13.4887 8.92653 13.9935 8.73978 14.424C8.60328 14.883 7.92528 15.0067 7.62528 14.6325C7.27428 14.2725 7.53678 13.6155 8.03403 13.566ZM15.6495 13.5862C16.0605 13.4167 16.5645 13.7662 16.533 14.205C16.5495 14.6872 15.927 15.0202 15.5258 14.7382C15.0705 14.4855 15.1538 13.7407 15.6495 13.5862ZM17.778 15.6862C17.6175 15.3915 17.9093 15.0007 18.243 15.0555C18.408 15.0525 18.5243 15.1807 18.63 15.2887C18.6518 15.4635 18.6885 15.672 18.5408 15.8062C18.3405 16.056 17.8868 15.9847 17.778 15.6862ZM5.57703 15.1372C5.88828 14.934 6.33603 15.2377 6.26553 15.5947C6.22803 15.912 5.82303 16.0927 5.55678 15.9127C5.27028 15.75 5.28078 15.2857 5.57703 15.1372ZM11.7218 15.7995C12.129 15.6232 12.648 15.972 12.609 16.413C12.639 16.9005 11.9978 17.238 11.5995 16.9455C11.157 16.6942 11.2313 15.9547 11.7218 15.7995ZM8.87628 16.4527C9.22278 16.2735 9.68778 16.5832 9.65628 16.9657C9.66678 17.2792 9.35629 17.5462 9.04129 17.4997C8.78103 17.4945 8.61153 17.2642 8.52753 17.046C8.53203 16.8082 8.63178 16.5435 8.87628 16.4535V16.4527ZM14.6408 16.4587C14.9978 16.2412 15.5048 16.5532 15.471 16.9612C15.48 17.3887 14.907 17.6617 14.5748 17.3812C14.2538 17.1615 14.2928 16.6335 14.6408 16.4587ZM15.6435 18.8962C15.4845 18.6607 15.6713 18.3765 15.9285 18.3225C16.1363 18.3637 16.356 18.5175 16.3118 18.753C16.2818 19.0732 15.8063 19.1707 15.6435 18.897V18.8962ZM7.68528 18.6915C7.74828 18.504 7.90128 18.3187 8.12553 18.3675C8.45178 18.39 8.54853 18.8745 8.26278 19.0237C8.00628 19.194 7.70778 18.9607 7.68528 18.6915ZM11.5253 18.9067C11.5875 18.6292 11.9513 18.495 12.1913 18.642C12.3503 18.7095 12.3968 18.8835 12.4373 19.032C12.4159 19.1091 12.3959 19.1866 12.3773 19.2645C12.279 19.3785 12.1523 19.4932 11.9888 19.4895C11.685 19.5247 11.4105 19.1865 11.5245 18.9067H11.5253Z" fill="white"/>
</g>
<defs>
<filter id="filter0_d_112_1239" x="2.75037" y="4.00027" width="18.4915" height="16.9917" filterUnits="userSpaceOnUse" color-interpolation-filters="sRGB">
<feFlood flood-opacity="0" result="BackgroundImageFix"/>
<feColorMatrix in="SourceAlpha" type="matrix" values="0 0 0 0 0 0 0 0 0 0 0 0 0 0 0 0 0 0 127 0" result="hardAlpha"/>
<feOffset dy="0.5"/>
<feGaussianBlur stdDeviation="0.5"/>
<feColorMatrix type="matrix" values="0 0 0 0 0 0 0 0 0 0 0 0 0 0 0 0 0 0 0.204257 0"/>
<feBlend mode="normal" in2="BackgroundImageFix" result="effect1_dropShadow_112_1239"/>
<feBlend mode="normal" in="SourceGraphic" in2="effect1_dropShadow_112_1239" result="shape"/>
</filter>
<clipPath id="clip0_112_1239">
<rect width="24" height="24" fill="white"/>
</clipPath>
</defs>
</svg>
