<svg width="13" height="17" viewBox="0 0 13 17" fill="none" xmlns="http://www.w3.org/2000/svg">
<path d="M5.64987 1.48781C5.64103 1.54229 5.63695 1.59742 5.63766 1.65259L5.63766 11.0459L5.5424 10.8411C5.44764 10.6409 5.31867 10.4587 5.16133 10.3028L2.5272 7.66871C2.19603 7.32179 1.66328 7.2635 1.26492 7.53058C0.840418 7.84141 0.748247 8.43751 1.05908 8.86205C1.08421 8.89634 1.1116 8.92894 1.14107 8.95958L5.90441 13.7229C6.27625 14.0952 6.87944 14.0955 7.25169 13.7237C7.25193 13.7234 7.2522 13.7232 7.25243 13.7229L12.0158 8.95958C12.3873 8.58702 12.3864 7.98384 12.0139 7.6123C11.9846 7.58306 11.9534 7.55576 11.9205 7.53058C11.5221 7.2635 10.9894 7.32179 10.6582 7.66871L8.01933 10.2981C7.87941 10.4378 7.76208 10.5986 7.67161 10.7744L7.543 11.0602L7.543 1.70502C7.56107 1.21835 7.22111 0.791378 6.74276 0.699952C6.2234 0.61573 5.73412 0.968456 5.64987 1.48781Z" fill="#57AE8F"/>
<rect x="0.879639" y="14.3774" width="11.4022" height="1.93511" rx="0.967553" fill="#57AE8F"/>
</svg>
