<svg width="13" height="17" viewBox="0 0 13 17" fill="none" xmlns="http://www.w3.org/2000/svg">
<path d="M5.64987 15.5122C5.64103 15.4577 5.63695 15.4026 5.63766 15.3474L5.63766 5.95408L5.5424 6.15891C5.44764 6.35911 5.31867 6.54125 5.16133 6.69716L2.5272 9.33129C2.19603 9.67821 1.66328 9.7365 1.26492 9.46942C0.840418 9.15859 0.748247 8.56249 1.05908 8.13795C1.08421 8.10366 1.1116 8.07106 1.14107 8.04042L5.90441 3.27709C6.27625 2.90483 6.87944 2.90451 7.25169 3.27634C7.25193 3.27658 7.2522 3.27685 7.25243 3.27709L12.0158 8.04042C12.3873 8.41298 12.3864 9.01616 12.0139 9.3877C11.9846 9.41694 11.9534 9.44424 11.9205 9.46942C11.5221 9.7365 10.9894 9.67821 10.6582 9.33129L8.01933 6.70193C7.87941 6.56215 7.76208 6.40145 7.67161 6.22559L7.543 5.93979L7.543 15.295C7.56107 15.7816 7.22111 16.2086 6.74276 16.3C6.2234 16.3843 5.73412 16.0315 5.64987 15.5122Z" fill="#FF6B69"/>
<rect width="11.4022" height="1.93511" rx="0.967553" transform="matrix(1 0 0 -1 0.879639 2.62256)" fill="#FF6B69"/>
</svg>
