<svg width="16" height="16" viewBox="0 0 16 16" fill="none" xmlns="http://www.w3.org/2000/svg">
<path d="M13.3334 3.66667C13.8857 3.66667 14.3334 3.21895 14.3334 2.66667C14.3334 2.11438 13.8857 1.66667 13.3334 1.66667V3.66667ZM3.66671 3.66667L13.3334 3.66667V1.66667L3.66671 1.66667V3.66667ZM3.66671 7L9.00004 7V5L3.66671 5V7ZM3.00005 4.33333C3.00005 3.96514 3.29852 3.66667 3.66671 3.66667V1.66667C2.19395 1.66667 1.00005 2.86057 1.00005 4.33333H3.00005ZM1.00005 4.33333C1.00005 5.80609 2.19395 7 3.66671 7V5C3.29852 5 3.00005 4.70152 3.00005 4.33333H1.00005Z" fill="#2752E7"/>
<path d="M2 8L2 4.33333" stroke="#2752E7" stroke-width="2"/>
<path d="M2 5.5H1.5V6L1.5 12L1.5 12.0329C1.49997 12.4762 1.49995 12.8581 1.54107 13.1639C1.58514 13.4917 1.68451 13.8058 1.93934 14.0607L2.29289 13.7071L1.93934 14.0607C2.19417 14.3155 2.50835 14.4149 2.8361 14.4589C3.14193 14.5 3.52384 14.5 3.96708 14.5L4 14.5L12 14.5C12.011 14.5 12.022 14.5 12.0329 14.5C12.4762 14.5 12.8581 14.5 13.1639 14.4589C13.4917 14.4149 13.8058 14.3155 14.0607 14.0607C14.3155 13.8058 14.4149 13.4917 14.4589 13.1639C14.5 12.8581 14.5 12.4762 14.5 12.0329C14.5 12.022 14.5 12.011 14.5 12V11.5H14H12C11.1716 11.5 10.5 10.8284 10.5 10C10.5 9.17157 11.1716 8.5 12 8.5H14H14.5L14.5 8L14.5 7.96709C14.5 7.52384 14.5 7.14193 14.4589 6.8361C14.4149 6.50835 14.3155 6.19417 14.0607 5.93934C13.8058 5.68451 13.4917 5.58514 13.1639 5.54107C12.8581 5.49995 12.4762 5.49997 12.0329 5.5L12 5.5L2 5.5Z" fill="#2752E7" stroke="#2752E7"/>
</svg>
