<svg width="16" height="16" viewBox="0 0 16 16" fill="none" xmlns="http://www.w3.org/2000/svg">
<g clip-path="url(#clip0_112_1091)">
<path fill-rule="evenodd" clip-rule="evenodd" d="M8.50051 0.799927C8.50051 0.523784 8.27665 0.299927 8.00051 0.299927C7.72437 0.299927 7.50051 0.523784 7.50051 0.799927V1.38801C7.21048 1.42126 6.90933 1.49896 6.65098 1.65988C6.32371 1.86372 6.08895 2.18847 6.03636 2.63126C5.99683 2.96409 6.03225 3.26954 6.15707 3.53898C6.2825 3.80973 6.47958 4.0039 6.69646 4.14353C7.09528 4.4003 7.61861 4.50297 8.01587 4.58091L8.03386 4.58444L8.06804 4.59115L8.06804 4.59115C8.27187 4.63112 8.45128 4.6663 8.61378 4.71022C8.78629 4.75685 8.90578 4.80489 8.98513 4.85488C9.05722 4.90028 9.07828 4.93547 9.08796 4.96121C9.09942 4.9917 9.11817 5.07311 9.07541 5.24775C9.05413 5.33467 8.99624 5.4172 8.83773 5.49224C8.66817 5.57249 8.42152 5.62214 8.12233 5.63161C7.51182 5.65092 6.87946 5.5001 6.63336 5.3704C6.38906 5.24166 6.08666 5.33533 5.95791 5.57962C5.82917 5.82392 5.92284 6.12633 6.16714 6.25507C6.4776 6.41868 6.97619 6.5505 7.50051 6.6055V7.19993C7.50051 7.47607 7.72437 7.69993 8.00051 7.69993C8.27665 7.69993 8.50051 7.47607 8.50051 7.19993V6.60482C8.76457 6.57217 9.02894 6.5081 9.26556 6.39609C9.6175 6.2295 9.93538 5.94031 10.0467 5.48557C10.1217 5.17917 10.1264 4.88173 10.024 4.60935C9.91984 4.33222 9.72729 4.1405 9.51809 4.00873C9.31616 3.88155 9.0867 3.80216 8.8747 3.74486C8.67671 3.69135 8.46426 3.64974 8.27023 3.61174L8.27023 3.61174L8.22648 3.60317C7.77873 3.51528 7.45095 3.43996 7.23779 3.30272C7.14565 3.24339 7.09445 3.18343 7.06443 3.11862C7.0338 3.05251 7.0066 2.941 7.02938 2.74921C7.04381 2.62773 7.09265 2.56289 7.17967 2.50869C7.28852 2.44089 7.46824 2.38833 7.72204 2.37194C8.22824 2.33926 8.84053 2.46137 9.22484 2.59063C9.48657 2.67866 9.77012 2.53784 9.85815 2.27611C9.94618 2.01437 9.80536 1.73083 9.54363 1.6428C9.269 1.55043 8.89725 1.45857 8.50051 1.40752V0.799927Z" fill="#2752E7"/>
<path d="M5.24862 11.5241H9.30722C9.67541 11.5241 9.98767 11.2214 9.91654 10.8601C9.56793 9.08964 7.70678 9.97825 6.5373 9.50486C4.9684 8.8698 3.70443 8.44984 2.81443 8.78486C2.09604 9.05529 1.42941 9.73974 0.937205 10.2843C0.770018 10.4692 0.722358 10.733 0.811089 10.966L1.93497 13.9172C2.03343 14.1758 2.27974 14.3468 2.55638 14.3496C3.62793 14.3606 6.36543 14.4123 8.44611 14.6552C8.51013 14.6627 8.57374 14.6613 8.63718 14.6499C11.2003 14.1882 14.2275 12.7105 15.1613 12.0311C15.2363 11.9766 15.2984 11.9051 15.318 11.8145C15.4503 11.2014 14.7238 10.0726 13.1955 10.6666C11.5489 11.3066 11.9641 11.2746 10.7613 11.7866C9.7405 12.2212 8.5851 12.091 8.09841 11.8949C7.96489 11.8411 7.82904 11.779 7.68579 11.7648L5.24862 11.5241Z" fill="#2752E7" stroke="#2752E7" stroke-linejoin="round"/>
</g>
<defs>
<clipPath id="clip0_112_1091">
<rect width="16" height="16" fill="white"/>
</clipPath>
</defs>
</svg>
